<mxfile host="app.diagrams.net" agent="Mozilla/5.0 (Windows NT 10.0; Win64; x64) AppleWebKit/537.36 (KHTML, like Gecko) Chrome/131.0.0.0 Safari/537.36" version="25.0.3">
  <diagram name="Stránka-1" id="DMZ2iU8GOZeOACFGhrlx">
    <mxGraphModel dx="880" dy="468" grid="1" gridSize="10" guides="1" tooltips="1" connect="1" arrows="1" fold="1" page="1" pageScale="1" pageWidth="827" pageHeight="1169" math="0" shadow="0">
      <root>
        <mxCell id="0" />
        <mxCell id="1" parent="0" />
        <mxCell id="6UYdUlcghPkuK4V_ywA7-2" value="&lt;p style=&quot;margin:0px;margin-top:4px;text-align:center;&quot;&gt;&lt;b&gt;Firma&lt;/b&gt;&lt;/p&gt;&lt;hr size=&quot;1&quot; style=&quot;border-style:solid;&quot;&gt;&lt;p style=&quot;margin:0px;margin-left:4px;&quot;&gt;+ název&lt;/p&gt;&lt;p style=&quot;margin:0px;margin-left:4px;&quot;&gt;+ adresa&lt;/p&gt;&lt;p style=&quot;margin:0px;margin-left:4px;&quot;&gt;+ DIČ&lt;/p&gt;&lt;hr size=&quot;1&quot; style=&quot;border-style:solid;&quot;&gt;&lt;p style=&quot;margin:0px;margin-left:4px;&quot;&gt;+ method(): Type&lt;/p&gt;" style="verticalAlign=top;align=left;overflow=fill;html=1;whiteSpace=wrap;" parent="1" vertex="1">
          <mxGeometry x="40" y="40" width="120" height="110" as="geometry" />
        </mxCell>
        <mxCell id="6UYdUlcghPkuK4V_ywA7-3" value="&lt;p style=&quot;margin:0px;margin-top:4px;text-align:center;&quot;&gt;&lt;b&gt;Daňový doklad&lt;/b&gt;&lt;/p&gt;&lt;hr size=&quot;1&quot; style=&quot;border-style:solid;&quot;&gt;&lt;p style=&quot;margin:0px;margin-left:4px;&quot;&gt;+ zákazník&lt;/p&gt;&lt;p style=&quot;margin:0px;margin-left:4px;&quot;&gt;+ datum vystavení&lt;/p&gt;&lt;p style=&quot;margin:0px;margin-left:4px;&quot;&gt;+ datum DPH&lt;/p&gt;&lt;p style=&quot;margin:0px;margin-left:4px;&quot;&gt;+ splatnost&lt;/p&gt;&lt;hr size=&quot;1&quot; style=&quot;border-style:solid;&quot;&gt;&lt;p style=&quot;margin:0px;margin-left:4px;&quot;&gt;+ method(): Type&lt;/p&gt;" style="verticalAlign=top;align=left;overflow=fill;html=1;whiteSpace=wrap;" parent="1" vertex="1">
          <mxGeometry x="640" y="30" width="130" height="120" as="geometry" />
        </mxCell>
        <mxCell id="6UYdUlcghPkuK4V_ywA7-4" value="&lt;p style=&quot;margin:0px;margin-top:4px;text-align:center;&quot;&gt;&lt;b&gt;Zákazník&lt;/b&gt;&lt;/p&gt;&lt;hr size=&quot;1&quot; style=&quot;border-style:solid;&quot;&gt;&lt;p style=&quot;margin:0px;margin-left:4px;&quot;&gt;&lt;br&gt;&lt;/p&gt;&lt;hr size=&quot;1&quot; style=&quot;border-style:solid;&quot;&gt;&lt;p style=&quot;margin:0px;margin-left:4px;&quot;&gt;+ method(): Type&lt;/p&gt;" style="verticalAlign=top;align=left;overflow=fill;html=1;whiteSpace=wrap;" parent="1" vertex="1">
          <mxGeometry x="40" y="240" width="120" height="80" as="geometry" />
        </mxCell>
        <mxCell id="6UYdUlcghPkuK4V_ywA7-5" value="&lt;p style=&quot;margin:0px;margin-top:4px;text-align:center;&quot;&gt;&lt;b&gt;Objednávka&lt;/b&gt;&lt;/p&gt;&lt;hr size=&quot;1&quot; style=&quot;border-style:solid;&quot;&gt;&lt;p style=&quot;margin:0px;margin-left:4px;&quot;&gt;+ zákazník&lt;/p&gt;&lt;p style=&quot;margin:0px;margin-left:4px;&quot;&gt;+ zboží&lt;/p&gt;&lt;p style=&quot;margin:0px;margin-left:4px;&quot;&gt;+ místo dodání&lt;/p&gt;&lt;hr size=&quot;1&quot; style=&quot;border-style:solid;&quot;&gt;&lt;p style=&quot;margin:0px;margin-left:4px;&quot;&gt;+ method(): Type&lt;/p&gt;" style="verticalAlign=top;align=left;overflow=fill;html=1;whiteSpace=wrap;" parent="1" vertex="1">
          <mxGeometry x="240" y="240" width="120" height="110" as="geometry" />
        </mxCell>
        <mxCell id="6UYdUlcghPkuK4V_ywA7-6" value="&lt;p style=&quot;margin:0px;margin-top:4px;text-align:center;&quot;&gt;&lt;b&gt;Dodací list&lt;/b&gt;&lt;/p&gt;&lt;hr size=&quot;1&quot; style=&quot;border-style:solid;&quot;&gt;&lt;p style=&quot;margin:0px;margin-left:4px;&quot;&gt;+ objednávka&lt;/p&gt;&lt;p style=&quot;margin:0px;margin-left:4px;&quot;&gt;+ váha&lt;/p&gt;&lt;p style=&quot;margin:0px;margin-left:4px;&quot;&gt;+ termín dodání&lt;/p&gt;&lt;hr size=&quot;1&quot; style=&quot;border-style:solid;&quot;&gt;&lt;p style=&quot;margin:0px;margin-left:4px;&quot;&gt;+ method(): Type&lt;/p&gt;" style="verticalAlign=top;align=left;overflow=fill;html=1;whiteSpace=wrap;" parent="1" vertex="1">
          <mxGeometry x="440" y="240" width="120" height="110" as="geometry" />
        </mxCell>
        <mxCell id="6UYdUlcghPkuK4V_ywA7-7" value="&lt;p style=&quot;margin:0px;margin-top:4px;text-align:center;&quot;&gt;&lt;b&gt;Faktura&lt;/b&gt;&lt;/p&gt;&lt;hr size=&quot;1&quot; style=&quot;border-style:solid;&quot;&gt;&lt;p style=&quot;margin:0px;margin-left:4px;&quot;&gt;+ dodací list&lt;/p&gt;&lt;p style=&quot;margin:0px;margin-left:4px;&quot;&gt;+&amp;nbsp;&lt;/p&gt;&lt;p style=&quot;margin:0px;margin-left:4px;&quot;&gt;+&amp;nbsp;&lt;/p&gt;&lt;hr size=&quot;1&quot; style=&quot;border-style:solid;&quot;&gt;&lt;p style=&quot;margin:0px;margin-left:4px;&quot;&gt;+ method(): Type&lt;/p&gt;" style="verticalAlign=top;align=left;overflow=fill;html=1;whiteSpace=wrap;" parent="1" vertex="1">
          <mxGeometry x="640" y="240" width="120" height="110" as="geometry" />
        </mxCell>
        <mxCell id="6UYdUlcghPkuK4V_ywA7-8" value="&lt;p style=&quot;margin:0px;margin-top:4px;text-align:center;&quot;&gt;&lt;b&gt;CS&lt;/b&gt;&lt;/p&gt;&lt;hr size=&quot;1&quot; style=&quot;border-style:solid;&quot;&gt;&lt;p style=&quot;margin:0px;margin-left:4px;&quot;&gt;+&amp;nbsp;&lt;/p&gt;&lt;p style=&quot;margin:0px;margin-left:4px;&quot;&gt;+&amp;nbsp;&lt;/p&gt;&lt;p style=&quot;margin:0px;margin-left:4px;&quot;&gt;+&amp;nbsp;&lt;/p&gt;&lt;hr size=&quot;1&quot; style=&quot;border-style:solid;&quot;&gt;&lt;p style=&quot;margin:0px;margin-left:4px;&quot;&gt;+ method(): Type&lt;/p&gt;" style="verticalAlign=top;align=left;overflow=fill;html=1;whiteSpace=wrap;" parent="1" vertex="1">
          <mxGeometry x="150" y="440" width="120" height="110" as="geometry" />
        </mxCell>
        <mxCell id="6UYdUlcghPkuK4V_ywA7-9" value="&lt;p style=&quot;margin:0px;margin-top:4px;text-align:center;&quot;&gt;&lt;b&gt;Shipping&lt;/b&gt;&lt;/p&gt;&lt;hr size=&quot;1&quot; style=&quot;border-style:solid;&quot;&gt;&lt;p style=&quot;margin:0px;margin-left:4px;&quot;&gt;+&amp;nbsp;&lt;/p&gt;&lt;p style=&quot;margin:0px;margin-left:4px;&quot;&gt;+&amp;nbsp;&lt;/p&gt;&lt;p style=&quot;margin:0px;margin-left:4px;&quot;&gt;+&amp;nbsp;&lt;/p&gt;&lt;hr size=&quot;1&quot; style=&quot;border-style:solid;&quot;&gt;&lt;p style=&quot;margin:0px;margin-left:4px;&quot;&gt;+ method(): Type&lt;/p&gt;" style="verticalAlign=top;align=left;overflow=fill;html=1;whiteSpace=wrap;" parent="1" vertex="1">
          <mxGeometry x="360" y="440" width="120" height="110" as="geometry" />
        </mxCell>
        <mxCell id="6UYdUlcghPkuK4V_ywA7-10" value="&lt;p style=&quot;margin:0px;margin-top:4px;text-align:center;&quot;&gt;&lt;b&gt;Invoicing&lt;/b&gt;&lt;/p&gt;&lt;hr size=&quot;1&quot; style=&quot;border-style:solid;&quot;&gt;&lt;p style=&quot;margin:0px;margin-left:4px;&quot;&gt;+&amp;nbsp;&lt;/p&gt;&lt;p style=&quot;margin:0px;margin-left:4px;&quot;&gt;+&amp;nbsp;&lt;/p&gt;&lt;p style=&quot;margin:0px;margin-left:4px;&quot;&gt;+&amp;nbsp;&lt;/p&gt;&lt;hr size=&quot;1&quot; style=&quot;border-style:solid;&quot;&gt;&lt;p style=&quot;margin:0px;margin-left:4px;&quot;&gt;+ method(): Type&lt;/p&gt;" style="verticalAlign=top;align=left;overflow=fill;html=1;whiteSpace=wrap;" parent="1" vertex="1">
          <mxGeometry x="560" y="440" width="120" height="110" as="geometry" />
        </mxCell>
        <mxCell id="6UYdUlcghPkuK4V_ywA7-11" value="&lt;p style=&quot;margin:0px;margin-top:4px;text-align:center;&quot;&gt;&lt;b&gt;Credit Management&lt;/b&gt;&lt;/p&gt;&lt;hr size=&quot;1&quot; style=&quot;border-style:solid;&quot;&gt;&lt;p style=&quot;margin:0px;margin-left:4px;&quot;&gt;+&amp;nbsp;&lt;/p&gt;&lt;p style=&quot;margin:0px;margin-left:4px;&quot;&gt;+&amp;nbsp;&lt;/p&gt;&lt;p style=&quot;margin:0px;margin-left:4px;&quot;&gt;+&amp;nbsp;&lt;/p&gt;&lt;hr size=&quot;1&quot; style=&quot;border-style:solid;&quot;&gt;&lt;p style=&quot;margin:0px;margin-left:4px;&quot;&gt;+ method(): Type&lt;/p&gt;" style="verticalAlign=top;align=left;overflow=fill;html=1;whiteSpace=wrap;" parent="1" vertex="1">
          <mxGeometry x="240" y="640" width="120" height="110" as="geometry" />
        </mxCell>
        <mxCell id="6UYdUlcghPkuK4V_ywA7-13" value="&lt;p style=&quot;margin:0px;margin-top:4px;text-align:center;&quot;&gt;&lt;b&gt;Storno Faktura&lt;/b&gt;&lt;/p&gt;&lt;hr size=&quot;1&quot; style=&quot;border-style:solid;&quot;&gt;&lt;p style=&quot;margin:0px;margin-left:4px;&quot;&gt;+ důvod&lt;/p&gt;&lt;p style=&quot;margin:0px;margin-left:4px;&quot;&gt;+&amp;nbsp;&lt;/p&gt;&lt;p style=&quot;margin:0px;margin-left:4px;&quot;&gt;+&lt;/p&gt;&lt;hr size=&quot;1&quot; style=&quot;border-style:solid;&quot;&gt;&lt;p style=&quot;margin:0px;margin-left:4px;&quot;&gt;+ method(): Type&lt;/p&gt;" style="verticalAlign=top;align=left;overflow=fill;html=1;whiteSpace=wrap;" parent="1" vertex="1">
          <mxGeometry x="640" y="840" width="120" height="110" as="geometry" />
        </mxCell>
        <mxCell id="6UYdUlcghPkuK4V_ywA7-14" value="&lt;p style=&quot;margin:0px;margin-top:4px;text-align:center;&quot;&gt;&lt;b&gt;Vratka&lt;/b&gt;&lt;/p&gt;&lt;hr size=&quot;1&quot; style=&quot;border-style:solid;&quot;&gt;&lt;p style=&quot;margin:0px;margin-left:4px;&quot;&gt;+ množství&lt;/p&gt;&lt;p style=&quot;margin:0px;margin-left:4px;&quot;&gt;+ cena&lt;/p&gt;&lt;p style=&quot;margin:0px;margin-left:4px;&quot;&gt;+ důvod&lt;/p&gt;&lt;hr size=&quot;1&quot; style=&quot;border-style:solid;&quot;&gt;&lt;p style=&quot;margin:0px;margin-left:4px;&quot;&gt;+ method(): Type&lt;/p&gt;" style="verticalAlign=top;align=left;overflow=fill;html=1;whiteSpace=wrap;" parent="1" vertex="1">
          <mxGeometry x="440" y="840" width="120" height="110" as="geometry" />
        </mxCell>
        <mxCell id="6UYdUlcghPkuK4V_ywA7-15" value="&lt;p style=&quot;margin:0px;margin-top:4px;text-align:center;&quot;&gt;&lt;b&gt;Dobropis&lt;/b&gt;&lt;/p&gt;&lt;hr size=&quot;1&quot; style=&quot;border-style:solid;&quot;&gt;&lt;p style=&quot;margin:0px;margin-left:4px;&quot;&gt;+ množství&lt;/p&gt;&lt;p style=&quot;margin:0px;margin-left:4px;&quot;&gt;+ cena&lt;/p&gt;&lt;p style=&quot;margin:0px;margin-left:4px;&quot;&gt;+ důvod&lt;/p&gt;&lt;hr size=&quot;1&quot; style=&quot;border-style:solid;&quot;&gt;&lt;p style=&quot;margin:0px;margin-left:4px;&quot;&gt;+ method(): Type&lt;/p&gt;" style="verticalAlign=top;align=left;overflow=fill;html=1;whiteSpace=wrap;" parent="1" vertex="1">
          <mxGeometry x="240" y="840" width="120" height="110" as="geometry" />
        </mxCell>
        <mxCell id="6UYdUlcghPkuK4V_ywA7-16" value="&lt;p style=&quot;margin:0px;margin-top:4px;text-align:center;&quot;&gt;&lt;b&gt;Vrubopis&lt;/b&gt;&lt;/p&gt;&lt;hr size=&quot;1&quot; style=&quot;border-style:solid;&quot;&gt;&lt;p style=&quot;margin:0px;margin-left:4px;&quot;&gt;+ množství&lt;/p&gt;&lt;p style=&quot;margin:0px;margin-left:4px;&quot;&gt;+ cena&lt;/p&gt;&lt;p style=&quot;margin:0px;margin-left:4px;&quot;&gt;+ (důvod)&lt;/p&gt;&lt;hr size=&quot;1&quot; style=&quot;border-style:solid;&quot;&gt;&lt;p style=&quot;margin:0px;margin-left:4px;&quot;&gt;+ method(): Type&lt;/p&gt;" style="verticalAlign=top;align=left;overflow=fill;html=1;whiteSpace=wrap;" parent="1" vertex="1">
          <mxGeometry x="40" y="840" width="120" height="110" as="geometry" />
        </mxCell>
        <mxCell id="6UYdUlcghPkuK4V_ywA7-17" value="1" style="endArrow=open;html=1;endSize=12;startArrow=diamondThin;startSize=14;startFill=1;align=left;verticalAlign=bottom;rounded=0;entryX=0;entryY=0.364;entryDx=0;entryDy=0;entryPerimeter=0;" parent="1" target="6UYdUlcghPkuK4V_ywA7-5" edge="1">
          <mxGeometry x="-1" y="3" relative="1" as="geometry">
            <mxPoint x="160" y="279.29" as="sourcePoint" />
            <mxPoint x="230" y="281" as="targetPoint" />
          </mxGeometry>
        </mxCell>
        <mxCell id="6UYdUlcghPkuK4V_ywA7-20" value="1" style="endArrow=open;html=1;endSize=12;startArrow=diamondThin;startSize=14;startFill=1;align=left;verticalAlign=bottom;rounded=0;entryX=0;entryY=0.364;entryDx=0;entryDy=0;entryPerimeter=0;" parent="1" edge="1">
          <mxGeometry x="-1" y="3" relative="1" as="geometry">
            <mxPoint x="360" y="279.29" as="sourcePoint" />
            <mxPoint x="440" y="280" as="targetPoint" />
            <Array as="points">
              <mxPoint x="390" y="280.29" />
            </Array>
          </mxGeometry>
        </mxCell>
        <mxCell id="6UYdUlcghPkuK4V_ywA7-21" value="1" style="endArrow=open;html=1;endSize=12;startArrow=diamondThin;startSize=14;startFill=1;align=left;verticalAlign=bottom;rounded=0;entryX=0;entryY=0.364;entryDx=0;entryDy=0;entryPerimeter=0;" parent="1" edge="1">
          <mxGeometry x="-1" y="3" relative="1" as="geometry">
            <mxPoint x="560" y="279.29" as="sourcePoint" />
            <mxPoint x="640" y="280" as="targetPoint" />
            <Array as="points">
              <mxPoint x="590" y="280.29" />
            </Array>
          </mxGeometry>
        </mxCell>
        <mxCell id="6UYdUlcghPkuK4V_ywA7-22" value="osloví" style="endArrow=open;html=1;endSize=12;startArrow=none;startSize=14;startFill=0;rounded=0;exitX=0.631;exitY=1.004;exitDx=0;exitDy=0;exitPerimeter=0;entryX=0.445;entryY=-0.003;entryDx=0;entryDy=0;entryPerimeter=0;" parent="1" source="6UYdUlcghPkuK4V_ywA7-4" target="6UYdUlcghPkuK4V_ywA7-8" edge="1">
          <mxGeometry relative="1" as="geometry">
            <mxPoint x="120" y="410" as="sourcePoint" />
            <mxPoint x="280" y="410" as="targetPoint" />
          </mxGeometry>
        </mxCell>
        <mxCell id="6UYdUlcghPkuK4V_ywA7-23" value="1..*" style="edgeLabel;resizable=0;html=1;align=left;verticalAlign=top;" parent="6UYdUlcghPkuK4V_ywA7-22" connectable="0" vertex="1">
          <mxGeometry x="-1" relative="1" as="geometry">
            <mxPoint x="11" y="-7" as="offset" />
          </mxGeometry>
        </mxCell>
        <mxCell id="6UYdUlcghPkuK4V_ywA7-24" value="1" style="edgeLabel;resizable=0;html=1;align=right;verticalAlign=top;" parent="6UYdUlcghPkuK4V_ywA7-22" connectable="0" vertex="1">
          <mxGeometry x="1" relative="1" as="geometry">
            <mxPoint x="9" y="-21" as="offset" />
          </mxGeometry>
        </mxCell>
        <mxCell id="6UYdUlcghPkuK4V_ywA7-28" value="zadá" style="endArrow=open;html=1;endSize=12;startArrow=none;startSize=14;startFill=0;rounded=0;exitX=0.667;exitY=0;exitDx=0;exitDy=0;exitPerimeter=0;entryX=0.338;entryY=1.012;entryDx=0;entryDy=0;entryPerimeter=0;" parent="1" source="6UYdUlcghPkuK4V_ywA7-8" target="6UYdUlcghPkuK4V_ywA7-5" edge="1">
          <mxGeometry relative="1" as="geometry">
            <mxPoint x="240" y="390" as="sourcePoint" />
            <mxPoint x="321" y="391" as="targetPoint" />
          </mxGeometry>
        </mxCell>
        <mxCell id="6UYdUlcghPkuK4V_ywA7-29" value="1..*" style="edgeLabel;resizable=0;html=1;align=left;verticalAlign=top;" parent="6UYdUlcghPkuK4V_ywA7-28" connectable="0" vertex="1">
          <mxGeometry x="-1" relative="1" as="geometry">
            <mxPoint x="54" y="-93" as="offset" />
          </mxGeometry>
        </mxCell>
        <mxCell id="6UYdUlcghPkuK4V_ywA7-30" value="1" style="edgeLabel;resizable=0;html=1;align=right;verticalAlign=top;" parent="6UYdUlcghPkuK4V_ywA7-28" connectable="0" vertex="1">
          <mxGeometry x="1" relative="1" as="geometry">
            <mxPoint x="-31" y="66" as="offset" />
          </mxGeometry>
        </mxCell>
        <mxCell id="6UYdUlcghPkuK4V_ywA7-31" value="vystavuje" style="endArrow=open;html=1;endSize=12;startArrow=none;startSize=14;startFill=0;rounded=0;exitX=0.667;exitY=0;exitDx=0;exitDy=0;exitPerimeter=0;entryX=0.338;entryY=1.012;entryDx=0;entryDy=0;entryPerimeter=0;" parent="1" edge="1">
          <mxGeometry relative="1" as="geometry">
            <mxPoint x="450" y="440" as="sourcePoint" />
            <mxPoint x="501" y="351" as="targetPoint" />
          </mxGeometry>
        </mxCell>
        <mxCell id="6UYdUlcghPkuK4V_ywA7-32" value="1..*" style="edgeLabel;resizable=0;html=1;align=left;verticalAlign=top;" parent="6UYdUlcghPkuK4V_ywA7-31" connectable="0" vertex="1">
          <mxGeometry x="-1" relative="1" as="geometry">
            <mxPoint x="54" y="-93" as="offset" />
          </mxGeometry>
        </mxCell>
        <mxCell id="6UYdUlcghPkuK4V_ywA7-33" value="1" style="edgeLabel;resizable=0;html=1;align=right;verticalAlign=top;" parent="6UYdUlcghPkuK4V_ywA7-31" connectable="0" vertex="1">
          <mxGeometry x="1" relative="1" as="geometry">
            <mxPoint x="-31" y="66" as="offset" />
          </mxGeometry>
        </mxCell>
        <mxCell id="6UYdUlcghPkuK4V_ywA7-34" value="přebírá" style="endArrow=open;html=1;endSize=12;startArrow=none;startSize=14;startFill=0;rounded=0;exitX=0.631;exitY=1.004;exitDx=0;exitDy=0;exitPerimeter=0;" parent="1" edge="1">
          <mxGeometry relative="1" as="geometry">
            <mxPoint x="353" y="350" as="sourcePoint" />
            <mxPoint x="420" y="440" as="targetPoint" />
          </mxGeometry>
        </mxCell>
        <mxCell id="6UYdUlcghPkuK4V_ywA7-35" value="1..*" style="edgeLabel;resizable=0;html=1;align=left;verticalAlign=top;" parent="6UYdUlcghPkuK4V_ywA7-34" connectable="0" vertex="1">
          <mxGeometry x="-1" relative="1" as="geometry">
            <mxPoint x="11" y="-7" as="offset" />
          </mxGeometry>
        </mxCell>
        <mxCell id="6UYdUlcghPkuK4V_ywA7-36" value="1" style="edgeLabel;resizable=0;html=1;align=right;verticalAlign=top;" parent="6UYdUlcghPkuK4V_ywA7-34" connectable="0" vertex="1">
          <mxGeometry x="1" relative="1" as="geometry">
            <mxPoint x="9" y="-21" as="offset" />
          </mxGeometry>
        </mxCell>
        <mxCell id="6UYdUlcghPkuK4V_ywA7-37" value="vystavuje" style="endArrow=open;html=1;endSize=12;startArrow=none;startSize=14;startFill=0;rounded=0;exitX=0.667;exitY=0;exitDx=0;exitDy=0;exitPerimeter=0;entryX=0.338;entryY=1.012;entryDx=0;entryDy=0;entryPerimeter=0;" parent="1" edge="1">
          <mxGeometry relative="1" as="geometry">
            <mxPoint x="660" y="440" as="sourcePoint" />
            <mxPoint x="711" y="351" as="targetPoint" />
          </mxGeometry>
        </mxCell>
        <mxCell id="6UYdUlcghPkuK4V_ywA7-38" value="1..*" style="edgeLabel;resizable=0;html=1;align=left;verticalAlign=top;" parent="6UYdUlcghPkuK4V_ywA7-37" connectable="0" vertex="1">
          <mxGeometry x="-1" relative="1" as="geometry">
            <mxPoint x="54" y="-93" as="offset" />
          </mxGeometry>
        </mxCell>
        <mxCell id="6UYdUlcghPkuK4V_ywA7-39" value="1" style="edgeLabel;resizable=0;html=1;align=right;verticalAlign=top;" parent="6UYdUlcghPkuK4V_ywA7-37" connectable="0" vertex="1">
          <mxGeometry x="1" relative="1" as="geometry">
            <mxPoint x="-31" y="66" as="offset" />
          </mxGeometry>
        </mxCell>
        <mxCell id="6UYdUlcghPkuK4V_ywA7-40" value="přebírá" style="endArrow=open;html=1;endSize=12;startArrow=none;startSize=14;startFill=0;rounded=0;exitX=0.631;exitY=1.004;exitDx=0;exitDy=0;exitPerimeter=0;" parent="1" edge="1">
          <mxGeometry relative="1" as="geometry">
            <mxPoint x="550" y="350" as="sourcePoint" />
            <mxPoint x="617" y="440" as="targetPoint" />
          </mxGeometry>
        </mxCell>
        <mxCell id="6UYdUlcghPkuK4V_ywA7-41" value="1..*" style="edgeLabel;resizable=0;html=1;align=left;verticalAlign=top;" parent="6UYdUlcghPkuK4V_ywA7-40" connectable="0" vertex="1">
          <mxGeometry x="-1" relative="1" as="geometry">
            <mxPoint x="11" y="-7" as="offset" />
          </mxGeometry>
        </mxCell>
        <mxCell id="6UYdUlcghPkuK4V_ywA7-42" value="1" style="edgeLabel;resizable=0;html=1;align=right;verticalAlign=top;" parent="6UYdUlcghPkuK4V_ywA7-40" connectable="0" vertex="1">
          <mxGeometry x="1" relative="1" as="geometry">
            <mxPoint x="9" y="-21" as="offset" />
          </mxGeometry>
        </mxCell>
        <mxCell id="6UYdUlcghPkuK4V_ywA7-43" value="" style="endArrow=block;endSize=16;endFill=0;html=1;rounded=0;entryX=0.461;entryY=0.988;entryDx=0;entryDy=0;entryPerimeter=0;" parent="1" target="6UYdUlcghPkuK4V_ywA7-3" edge="1">
          <mxGeometry width="160" relative="1" as="geometry">
            <mxPoint x="700" y="240" as="sourcePoint" />
            <mxPoint x="720" y="130" as="targetPoint" />
          </mxGeometry>
        </mxCell>
        <mxCell id="6UYdUlcghPkuK4V_ywA7-44" value="" style="endArrow=open;html=1;endSize=12;startArrow=none;startSize=14;startFill=0;rounded=0;edgeStyle=orthogonalEdgeStyle;entryX=0;entryY=0.75;entryDx=0;entryDy=0;" parent="1" target="6UYdUlcghPkuK4V_ywA7-11" edge="1">
          <mxGeometry relative="1" as="geometry">
            <mxPoint x="60" y="320" as="sourcePoint" />
            <mxPoint x="60" y="710" as="targetPoint" />
            <Array as="points">
              <mxPoint x="60" y="723" />
            </Array>
          </mxGeometry>
        </mxCell>
        <mxCell id="6UYdUlcghPkuK4V_ywA7-45" value="0..*" style="edgeLabel;resizable=0;html=1;align=left;verticalAlign=top;" parent="6UYdUlcghPkuK4V_ywA7-44" connectable="0" vertex="1">
          <mxGeometry x="-1" relative="1" as="geometry">
            <mxPoint x="11" y="-7" as="offset" />
          </mxGeometry>
        </mxCell>
        <mxCell id="6UYdUlcghPkuK4V_ywA7-47" value="1" style="edgeLabel;html=1;align=center;verticalAlign=middle;resizable=0;points=[];" parent="6UYdUlcghPkuK4V_ywA7-44" vertex="1" connectable="0">
          <mxGeometry x="0.5011" relative="1" as="geometry">
            <mxPoint x="135" y="-13" as="offset" />
          </mxGeometry>
        </mxCell>
        <mxCell id="6UYdUlcghPkuK4V_ywA7-48" value="" style="endArrow=open;html=1;endSize=12;startArrow=none;startSize=14;startFill=0;rounded=0;exitX=0.631;exitY=1.004;exitDx=0;exitDy=0;exitPerimeter=0;edgeStyle=orthogonalEdgeStyle;" parent="1" edge="1">
          <mxGeometry relative="1" as="geometry">
            <mxPoint x="326" y="750" as="sourcePoint" />
            <mxPoint x="440" y="890" as="targetPoint" />
            <Array as="points">
              <mxPoint x="326" y="790" />
              <mxPoint x="390" y="790" />
              <mxPoint x="390" y="890" />
            </Array>
          </mxGeometry>
        </mxCell>
        <mxCell id="6UYdUlcghPkuK4V_ywA7-49" value="0-1" style="edgeLabel;resizable=0;html=1;align=left;verticalAlign=top;" parent="6UYdUlcghPkuK4V_ywA7-48" connectable="0" vertex="1">
          <mxGeometry x="-1" relative="1" as="geometry">
            <mxPoint x="92" y="110" as="offset" />
          </mxGeometry>
        </mxCell>
        <mxCell id="6UYdUlcghPkuK4V_ywA7-50" value="1" style="edgeLabel;resizable=0;html=1;align=right;verticalAlign=top;" parent="6UYdUlcghPkuK4V_ywA7-48" connectable="0" vertex="1">
          <mxGeometry x="1" relative="1" as="geometry">
            <mxPoint x="-101" y="-146" as="offset" />
          </mxGeometry>
        </mxCell>
        <mxCell id="6UYdUlcghPkuK4V_ywA7-51" value="" style="endArrow=open;html=1;endSize=12;startArrow=none;startSize=14;startFill=0;rounded=0;exitX=0.631;exitY=1.004;exitDx=0;exitDy=0;exitPerimeter=0;entryX=0.057;entryY=0.009;entryDx=0;entryDy=0;entryPerimeter=0;" parent="1" target="6UYdUlcghPkuK4V_ywA7-13" edge="1">
          <mxGeometry relative="1" as="geometry">
            <mxPoint x="360" y="730" as="sourcePoint" />
            <mxPoint x="526" y="819" as="targetPoint" />
          </mxGeometry>
        </mxCell>
        <mxCell id="6UYdUlcghPkuK4V_ywA7-52" value="0 -1" style="edgeLabel;resizable=0;html=1;align=left;verticalAlign=top;" parent="6UYdUlcghPkuK4V_ywA7-51" connectable="0" vertex="1">
          <mxGeometry x="-1" relative="1" as="geometry">
            <mxPoint x="286" y="89" as="offset" />
          </mxGeometry>
        </mxCell>
        <mxCell id="6UYdUlcghPkuK4V_ywA7-53" value="1" style="edgeLabel;resizable=0;html=1;align=right;verticalAlign=top;" parent="6UYdUlcghPkuK4V_ywA7-51" connectable="0" vertex="1">
          <mxGeometry x="1" relative="1" as="geometry">
            <mxPoint x="-277" y="-133" as="offset" />
          </mxGeometry>
        </mxCell>
        <mxCell id="6UYdUlcghPkuK4V_ywA7-54" value="" style="endArrow=open;html=1;endSize=12;startArrow=none;startSize=14;startFill=0;rounded=0;exitX=0.631;exitY=1.004;exitDx=0;exitDy=0;exitPerimeter=0;" parent="1" edge="1">
          <mxGeometry relative="1" as="geometry">
            <mxPoint x="300" y="750" as="sourcePoint" />
            <mxPoint x="300" y="840" as="targetPoint" />
          </mxGeometry>
        </mxCell>
        <mxCell id="6UYdUlcghPkuK4V_ywA7-55" value="0-1" style="edgeLabel;resizable=0;html=1;align=left;verticalAlign=top;" parent="6UYdUlcghPkuK4V_ywA7-54" connectable="0" vertex="1">
          <mxGeometry x="-1" relative="1" as="geometry">
            <mxPoint x="5" y="69" as="offset" />
          </mxGeometry>
        </mxCell>
        <mxCell id="6UYdUlcghPkuK4V_ywA7-56" value="1" style="edgeLabel;resizable=0;html=1;align=right;verticalAlign=top;" parent="6UYdUlcghPkuK4V_ywA7-54" connectable="0" vertex="1">
          <mxGeometry x="1" relative="1" as="geometry">
            <mxPoint x="-6" y="-97" as="offset" />
          </mxGeometry>
        </mxCell>
        <mxCell id="6UYdUlcghPkuK4V_ywA7-57" value="" style="endArrow=open;html=1;endSize=12;startArrow=none;startSize=14;startFill=0;rounded=0;exitX=0.631;exitY=1.004;exitDx=0;exitDy=0;exitPerimeter=0;edgeStyle=orthogonalEdgeStyle;entryX=0.981;entryY=0.318;entryDx=0;entryDy=0;entryPerimeter=0;" parent="1" target="6UYdUlcghPkuK4V_ywA7-16" edge="1">
          <mxGeometry relative="1" as="geometry">
            <mxPoint x="258" y="750" as="sourcePoint" />
            <mxPoint x="140" y="838" as="targetPoint" />
            <Array as="points">
              <mxPoint x="258" y="780" />
              <mxPoint x="200" y="780" />
              <mxPoint x="200" y="875" />
            </Array>
          </mxGeometry>
        </mxCell>
        <mxCell id="6UYdUlcghPkuK4V_ywA7-58" value="0-1" style="edgeLabel;resizable=0;html=1;align=left;verticalAlign=top;" parent="6UYdUlcghPkuK4V_ywA7-57" connectable="0" vertex="1">
          <mxGeometry x="-1" relative="1" as="geometry">
            <mxPoint x="-98" y="95" as="offset" />
          </mxGeometry>
        </mxCell>
        <mxCell id="6UYdUlcghPkuK4V_ywA7-59" value="1" style="edgeLabel;resizable=0;html=1;align=right;verticalAlign=top;" parent="6UYdUlcghPkuK4V_ywA7-57" connectable="0" vertex="1">
          <mxGeometry x="1" relative="1" as="geometry">
            <mxPoint x="94" y="-131" as="offset" />
          </mxGeometry>
        </mxCell>
        <mxCell id="6UYdUlcghPkuK4V_ywA7-60" value="dává pokyny" style="endArrow=none;html=1;endSize=12;startArrow=open;startSize=14;startFill=0;rounded=0;exitX=0.631;exitY=1.004;exitDx=0;exitDy=0;exitPerimeter=0;endFill=0;" parent="1" target="6UYdUlcghPkuK4V_ywA7-11" edge="1">
          <mxGeometry relative="1" as="geometry">
            <mxPoint x="240" y="550" as="sourcePoint" />
            <mxPoint x="327" y="670" as="targetPoint" />
          </mxGeometry>
        </mxCell>
        <mxCell id="6UYdUlcghPkuK4V_ywA7-61" value="1" style="edgeLabel;resizable=0;html=1;align=left;verticalAlign=top;" parent="6UYdUlcghPkuK4V_ywA7-60" connectable="0" vertex="1">
          <mxGeometry x="-1" relative="1" as="geometry">
            <mxPoint x="11" y="-7" as="offset" />
          </mxGeometry>
        </mxCell>
        <mxCell id="6UYdUlcghPkuK4V_ywA7-62" value="1" style="edgeLabel;resizable=0;html=1;align=right;verticalAlign=top;" parent="6UYdUlcghPkuK4V_ywA7-60" connectable="0" vertex="1">
          <mxGeometry x="1" relative="1" as="geometry">
            <mxPoint x="9" y="-21" as="offset" />
          </mxGeometry>
        </mxCell>
        <mxCell id="6UYdUlcghPkuK4V_ywA7-63" value="dává pokyny" style="endArrow=open;html=1;endSize=12;startArrow=none;startSize=14;startFill=0;rounded=0;exitX=0.917;exitY=0;exitDx=0;exitDy=0;exitPerimeter=0;entryX=0.08;entryY=1.025;entryDx=0;entryDy=0;entryPerimeter=0;" parent="1" source="6UYdUlcghPkuK4V_ywA7-11" target="6UYdUlcghPkuK4V_ywA7-10" edge="1">
          <mxGeometry relative="1" as="geometry">
            <mxPoint x="414" y="580" as="sourcePoint" />
            <mxPoint x="451" y="670" as="targetPoint" />
          </mxGeometry>
        </mxCell>
        <mxCell id="6UYdUlcghPkuK4V_ywA7-64" value="1" style="edgeLabel;resizable=0;html=1;align=left;verticalAlign=top;" parent="6UYdUlcghPkuK4V_ywA7-63" connectable="0" vertex="1">
          <mxGeometry x="-1" relative="1" as="geometry">
            <mxPoint x="11" y="-7" as="offset" />
          </mxGeometry>
        </mxCell>
        <mxCell id="6UYdUlcghPkuK4V_ywA7-65" value="1" style="edgeLabel;resizable=0;html=1;align=right;verticalAlign=top;" parent="6UYdUlcghPkuK4V_ywA7-63" connectable="0" vertex="1">
          <mxGeometry x="1" relative="1" as="geometry">
            <mxPoint x="9" y="-5" as="offset" />
          </mxGeometry>
        </mxCell>
        <mxCell id="6UYdUlcghPkuK4V_ywA7-66" value="" style="endArrow=block;endSize=16;endFill=0;html=1;rounded=0;edgeStyle=orthogonalEdgeStyle;exitX=0.5;exitY=1;exitDx=0;exitDy=0;entryX=1;entryY=0.25;entryDx=0;entryDy=0;" parent="1" target="6UYdUlcghPkuK4V_ywA7-3" edge="1">
          <mxGeometry width="160" relative="1" as="geometry">
            <mxPoint x="100.00000000000011" y="950" as="sourcePoint" />
            <mxPoint x="810" y="40" as="targetPoint" />
            <Array as="points">
              <mxPoint x="100" y="1040" />
              <mxPoint x="840" y="1040" />
              <mxPoint x="840" y="60" />
            </Array>
          </mxGeometry>
        </mxCell>
        <mxCell id="6UYdUlcghPkuK4V_ywA7-67" value="" style="endArrow=diamondThin;endSize=16;endFill=1;html=1;rounded=0;edgeStyle=orthogonalEdgeStyle;exitX=0.5;exitY=1;exitDx=0;exitDy=0;entryX=1.016;entryY=0.348;entryDx=0;entryDy=0;entryPerimeter=0;startArrow=open;startFill=0;startSize=8;" parent="1" target="6UYdUlcghPkuK4V_ywA7-7" edge="1">
          <mxGeometry width="160" relative="1" as="geometry">
            <mxPoint x="110.06000000000012" y="950" as="sourcePoint" />
            <mxPoint x="780.06" y="60" as="targetPoint" />
            <Array as="points">
              <mxPoint x="110" y="1020" />
              <mxPoint x="820" y="1020" />
              <mxPoint x="820" y="280" />
              <mxPoint x="790" y="280" />
              <mxPoint x="790" y="278" />
            </Array>
          </mxGeometry>
        </mxCell>
        <mxCell id="6UYdUlcghPkuK4V_ywA7-68" value="1" style="edgeLabel;resizable=0;html=1;align=right;verticalAlign=top;" parent="1" connectable="0" vertex="1">
          <mxGeometry x="770.0003988994648" y="250.00224505779673" as="geometry" />
        </mxCell>
        <mxCell id="6UYdUlcghPkuK4V_ywA7-69" value="0..5" style="edgeLabel;resizable=0;html=1;align=left;verticalAlign=top;" parent="1" connectable="0" vertex="1">
          <mxGeometry x="110.00000000000011" y="950" as="geometry" />
        </mxCell>
        <mxCell id="6UYdUlcghPkuK4V_ywA7-70" value="" style="endArrow=open;html=1;endSize=12;startArrow=none;startSize=14;startFill=0;rounded=0;edgeStyle=orthogonalEdgeStyle;" parent="1" target="6UYdUlcghPkuK4V_ywA7-16" edge="1">
          <mxGeometry relative="1" as="geometry">
            <mxPoint x="679.97" y="470" as="sourcePoint" />
            <mxPoint x="150" y="954" as="targetPoint" />
            <Array as="points">
              <mxPoint x="790" y="470" />
              <mxPoint x="790" y="1000" />
              <mxPoint x="150" y="1000" />
            </Array>
          </mxGeometry>
        </mxCell>
        <mxCell id="6UYdUlcghPkuK4V_ywA7-71" value="1" style="edgeLabel;resizable=0;html=1;align=left;verticalAlign=top;" parent="6UYdUlcghPkuK4V_ywA7-70" connectable="0" vertex="1">
          <mxGeometry x="-1" relative="1" as="geometry">
            <mxPoint x="11" y="-7" as="offset" />
          </mxGeometry>
        </mxCell>
        <mxCell id="6UYdUlcghPkuK4V_ywA7-73" value="0-1" style="edgeLabel;resizable=0;html=1;align=left;verticalAlign=top;" parent="1" connectable="0" vertex="1">
          <mxGeometry x="160.0000000000001" y="950" as="geometry" />
        </mxCell>
        <mxCell id="6UYdUlcghPkuK4V_ywA7-80" value="1" style="endArrow=open;html=1;endSize=12;startArrow=none;startSize=14;startFill=0;align=left;verticalAlign=bottom;rounded=0;" parent="1" edge="1">
          <mxGeometry x="0.2" y="-10" relative="1" as="geometry">
            <mxPoint x="340" y="1000" as="sourcePoint" />
            <mxPoint x="340" y="950" as="targetPoint" />
            <mxPoint as="offset" />
          </mxGeometry>
        </mxCell>
        <mxCell id="6UYdUlcghPkuK4V_ywA7-81" value="1" style="endArrow=open;html=1;endSize=12;startArrow=none;startSize=14;startFill=0;align=left;verticalAlign=bottom;rounded=0;" parent="1" edge="1">
          <mxGeometry x="0.2" y="-10" relative="1" as="geometry">
            <mxPoint x="520" y="1000" as="sourcePoint" />
            <mxPoint x="520" y="950" as="targetPoint" />
            <mxPoint as="offset" />
          </mxGeometry>
        </mxCell>
        <mxCell id="6UYdUlcghPkuK4V_ywA7-82" value="1" style="endArrow=open;html=1;endSize=12;startArrow=none;startSize=14;startFill=0;align=left;verticalAlign=bottom;rounded=0;" parent="1" edge="1">
          <mxGeometry x="0.2" y="-10" relative="1" as="geometry">
            <mxPoint x="730" y="1000" as="sourcePoint" />
            <mxPoint x="730" y="950" as="targetPoint" />
            <mxPoint as="offset" />
          </mxGeometry>
        </mxCell>
        <mxCell id="6UYdUlcghPkuK4V_ywA7-83" value="0-5" style="endArrow=open;html=1;endSize=12;startArrow=none;startSize=14;startFill=0;align=left;verticalAlign=bottom;rounded=0;" parent="1" edge="1">
          <mxGeometry x="0.4326" y="20" relative="1" as="geometry">
            <mxPoint x="299" y="1020" as="sourcePoint" />
            <mxPoint x="298.5" y="950" as="targetPoint" />
            <mxPoint as="offset" />
          </mxGeometry>
        </mxCell>
        <mxCell id="6UYdUlcghPkuK4V_ywA7-84" value="0-5" style="endArrow=open;html=1;endSize=12;startArrow=none;startSize=14;startFill=0;align=left;verticalAlign=bottom;rounded=0;" parent="1" edge="1">
          <mxGeometry x="0.149" y="30" relative="1" as="geometry">
            <mxPoint x="490.5" y="1019" as="sourcePoint" />
            <mxPoint x="490" y="949" as="targetPoint" />
            <mxPoint as="offset" />
          </mxGeometry>
        </mxCell>
        <mxCell id="6UYdUlcghPkuK4V_ywA7-85" value="0-5" style="endArrow=open;html=1;endSize=12;startArrow=none;startSize=14;startFill=0;align=left;verticalAlign=bottom;rounded=0;" parent="1" edge="1">
          <mxGeometry x="0.149" y="30" relative="1" as="geometry">
            <mxPoint x="700" y="1020" as="sourcePoint" />
            <mxPoint x="699.5" y="950" as="targetPoint" />
            <mxPoint as="offset" />
          </mxGeometry>
        </mxCell>
        <mxCell id="6UYdUlcghPkuK4V_ywA7-86" value="" style="endArrow=none;html=1;endSize=12;startArrow=none;startSize=14;startFill=0;align=left;verticalAlign=bottom;rounded=0;endFill=0;" parent="1" edge="1">
          <mxGeometry x="0.2" y="-10" relative="1" as="geometry">
            <mxPoint x="260" y="1040" as="sourcePoint" />
            <mxPoint x="260" y="950" as="targetPoint" />
            <mxPoint as="offset" />
          </mxGeometry>
        </mxCell>
        <mxCell id="6UYdUlcghPkuK4V_ywA7-88" value="" style="endArrow=none;html=1;endSize=12;startArrow=none;startSize=14;startFill=0;align=left;verticalAlign=bottom;rounded=0;endFill=0;" parent="1" edge="1">
          <mxGeometry x="0.2" y="-10" relative="1" as="geometry">
            <mxPoint x="450" y="1040" as="sourcePoint" />
            <mxPoint x="450" y="950" as="targetPoint" />
            <mxPoint as="offset" />
          </mxGeometry>
        </mxCell>
        <mxCell id="6UYdUlcghPkuK4V_ywA7-89" value="" style="endArrow=none;html=1;endSize=12;startArrow=none;startSize=14;startFill=0;align=left;verticalAlign=bottom;rounded=0;endFill=0;" parent="1" edge="1">
          <mxGeometry x="0.2" y="-10" relative="1" as="geometry">
            <mxPoint x="660" y="1040" as="sourcePoint" />
            <mxPoint x="660" y="950" as="targetPoint" />
            <mxPoint as="offset" />
          </mxGeometry>
        </mxCell>
        <mxCell id="6UYdUlcghPkuK4V_ywA7-90" value="" style="endArrow=block;endSize=16;endFill=0;html=1;rounded=0;entryX=0.461;entryY=0.988;entryDx=0;entryDy=0;entryPerimeter=0;" parent="1" edge="1">
          <mxGeometry width="160" relative="1" as="geometry">
            <mxPoint x="90" y="240" as="sourcePoint" />
            <mxPoint x="90" y="149" as="targetPoint" />
          </mxGeometry>
        </mxCell>
        <mxCell id="mZhsUAPk1k2x-pedKl8--1" value="1..*" style="edgeLabel;resizable=0;html=1;align=left;verticalAlign=top;" connectable="0" vertex="1" parent="1">
          <mxGeometry x="260" y="330" as="geometry">
            <mxPoint x="-44" y="-84" as="offset" />
          </mxGeometry>
        </mxCell>
        <mxCell id="mZhsUAPk1k2x-pedKl8--2" value="1" style="text;html=1;align=center;verticalAlign=middle;resizable=0;points=[];autosize=1;strokeColor=none;fillColor=none;" vertex="1" parent="1">
          <mxGeometry x="414" y="250" width="30" height="30" as="geometry" />
        </mxCell>
        <mxCell id="mZhsUAPk1k2x-pedKl8--3" value="1" style="text;html=1;align=center;verticalAlign=middle;resizable=0;points=[];autosize=1;strokeColor=none;fillColor=none;" vertex="1" parent="1">
          <mxGeometry x="620" y="250" width="30" height="30" as="geometry" />
        </mxCell>
      </root>
    </mxGraphModel>
  </diagram>
</mxfile>
